<?xml version="1.0" encoding="UTF-8"?><svg id="Layer_1" xmlns="http://www.w3.org/2000/svg" viewBox="0 0 200 200"><path d="m160.5,167.97h-29.25v-18.35c0-17.24-14.03-31.27-31.27-31.27s-31.27,14.03-31.27,31.27v18.35h-29.25v-90.7l-12.92,10.2v86.97c0,3.56,2.9,6.46,6.46,6.46h42.18c1.73,0,3.35-.67,4.57-1.89,1.22-1.22,1.89-2.84,1.89-4.57v-24.81c0-10.29,8.06-18.35,18.35-18.35s18.35,8.06,18.35,18.35v24.81c0,3.56,2.9,6.46,6.46,6.46h42.18c1.73,0,3.35-.67,4.57-1.89,1.22-1.22,1.89-2.84,1.89-4.57v-86.97l-12.92-10.2v90.7Z"/><path d="m198.29,94.87L103.93,20.38c-1.18-.81-2.45-1.24-3.76-1.27-1.45-.04-2.82.4-4.12,1.25l-26.83,21.18v-15.98c0-3.56-2.9-6.46-6.46-6.46h-19.85c-3.56,0-6.46,2.9-6.46,6.46v41.84L1.71,94.84c-1.31.96-2.16,2.44-2.39,4.14-.25,1.82.23,3.66,1.32,5.05,1,1.28,2.56,2.12,4.28,2.33,1.75.21,3.5-.27,4.81-1.3L99.98,33.84l90.25,71.21c1.11.88,2.54,1.35,4.04,1.35.28,0,.57-.02.86-.05,1.73-.21,3.29-1.06,4.28-2.33,2.17-2.81,1.68-6.91-1.11-9.15ZM56.3,32.03v19.71l-6.92,5.46v-25.18h6.92Z"/></svg>