<?xml version="1.0" encoding="UTF-8"?><svg id="Layer_1" xmlns="http://www.w3.org/2000/svg" viewBox="0 0 200 200"><defs><style>.cls-1{fill-rule:evenodd;}</style></defs><path class="cls-1" d="m100,19.27c-44.59,0-80.73,36.14-80.73,80.73s36.14,80.73,80.73,80.73,80.73-36.15,80.73-80.73S144.59,19.27,100,19.27ZM4.59,100C4.59,47.31,47.31,4.59,100,4.59s95.41,42.72,95.41,95.41-42.72,95.41-95.41,95.41S4.59,152.69,4.59,100Z"/><path class="cls-1" d="m87.77,139.14c0,4.05,3.29,7.34,7.34,7.34h9.79c4.05,0,7.34-3.29,7.34-7.34,0-3.2-2.04-5.91-4.89-6.92v-42.01c0-4.05-3.29-7.34-7.34-7.34h-4.89c-4.05,0-7.34,3.29-7.34,7.34,0,3.2,2.04,5.91,4.89,6.92v35.08c-2.85,1.01-4.89,3.73-4.89,6.92Z"/><path d="m109.78,60.86c0-5.4-4.38-9.79-9.79-9.79s-9.79,4.38-9.79,9.79,4.38,9.79,9.79,9.79,9.79-4.38,9.79-9.79Z"/></svg>