<?xml version="1.0" encoding="UTF-8"?><svg id="Layer_1" xmlns="http://www.w3.org/2000/svg" viewBox="0 0 35.03 33.73"><defs><style>.cls-1{fill:#f9d521;stroke:#f9d521;stroke-miterlimit:10;stroke-width:.5px;}</style></defs><rect x="1.3" width="33.73" height="33.73"/><circle class="cls-1" cx="25.46" cy="29.05" r=".48"/><circle class="cls-1" cx="26.56" cy="27.97" r=".48"/><circle class="cls-1" cx="25.95" cy="26.29" r=".48"/><circle class="cls-1" cx="26.81" cy="24.96" r=".48"/><circle class="cls-1" cx="25.81" cy="23.48" r=".48"/><circle class="cls-1" cx="25.15" cy="24.96" r=".48"/><circle class="cls-1" cx="23.5" cy="24.9" r=".48"/><circle class="cls-1" cx="24.18" cy="28.46" r=".48"/><circle class="cls-1" cx="25.15" cy="27.42" r=".48"/><circle class="cls-1" cx="24.4" cy="26.16" r=".48"/><circle class="cls-1" cx="22.83" cy="26.03" r=".48"/><circle class="cls-1" cx="21.86" cy="28.87" r=".48"/><circle class="cls-1" cx="21.26" cy="27.91" r=".48"/><circle class="cls-1" cx="20.47" cy="28.57" r=".48"/><circle class="cls-1" cx="26.63" cy="30.06" r=".48"/><circle class="cls-1" cx="25.32" cy="31.4" r=".48"/><circle class="cls-1" cx="27.86" cy="28.77" r=".48"/><circle class="cls-1" cx="29.79" cy="25.86" r=".48"/><circle class="cls-1" cx="28.37" cy="25.38" r=".48"/><circle class="cls-1" cx="31.57" cy="22.2" r=".48"/><circle class="cls-1" cx="32.22" cy="20.08" r=".44"/><circle class="cls-1" cx="32.78" cy="17.82" r=".44"/><circle class="cls-1" cx="33.17" cy="15.52" r=".44"/><circle class="cls-1" cx="30.69" cy="20.04" r=".44"/><circle class="cls-1" cx="29.2" cy="20.08" r=".44"/><circle class="cls-1" cx="27.51" cy="20.28" r=".44"/><circle class="cls-1" cx="25.84" cy="20.55" r=".44"/><circle class="cls-1" cx="24.14" cy="20.72" r=".38"/><circle class="cls-1" cx="24.99" cy="18.9" r=".38"/><circle class="cls-1" cx="26.65" cy="18.7" r=".38"/><circle class="cls-1" cx="28.22" cy="18.4" r=".38"/><circle class="cls-1" cx="29.7" cy="18.1" r=".38"/><circle class="cls-1" cx="31.26" cy="17.82" r=".38"/><circle class="cls-1" cx="31.78" cy="15.64" r=".38"/><circle class="cls-1" cx="30.34" cy="15.93" r=".38"/><circle class="cls-1" cx="34.34" cy="6.94" r=".38"/><circle class="cls-1" cx="33.91" cy="10.44" r=".38"/><circle class="cls-1" cx="33.6" cy="13.18" r=".38"/><circle class="cls-1" cx="32.25" cy="13.24" r=".38"/><circle class="cls-1" cx="30.87" cy="13.34" r=".38"/><circle class="cls-1" cx="29.56" cy="13.14" r=".38"/><circle class="cls-1" cx="28.32" cy="12.24" r=".3"/><circle class="cls-1" cx="27.13" cy="9.76" r=".3"/><circle class="cls-1" cx="30.3" cy="8.13" r=".3"/><circle class="cls-1" cx="33.13" cy="5.9" r=".3"/><circle class="cls-1" cx="29.02" cy="4.61" r=".3"/><circle class="cls-1" cx="25.63" cy="4.05" r=".3"/><circle class="cls-1" cx="31.52" cy="9.7" r=".3"/><circle class="cls-1" cx="32.73" cy="10.41" r=".3"/><circle class="cls-1" cx="23.71" cy="10.51" r=".3"/><circle class="cls-1" cx="3.08" cy="12.03" r=".3"/><circle class="cls-1" cx="5.18" cy="14.59" r=".3"/><circle class="cls-1" cx="7.15" cy="16.17" r=".3"/><circle class="cls-1" cx="9.5" cy="17.05" r=".3"/><circle class="cls-1" cx="11.89" cy="17.24" r=".3"/><circle class="cls-1" cx="14.56" cy="16.47" r=".3"/><circle class="cls-1" cx="17.44" cy="14.12" r=".3"/><circle class="cls-1" cx="20.26" cy="8.97" r=".3"/><circle class="cls-1" cx="28.86" cy="16.17" r=".38"/><circle class="cls-1" cx="27.51" cy="16.23" r=".38"/><circle class="cls-1" cx="25.94" cy="15.9" r=".33"/><circle class="cls-1" cx="24.76" cy="14.43" r=".33"/><circle class="cls-1" cx="21.98" cy="18.07" r=".33"/><circle class="cls-1" cx="20.95" cy="15.84" r=".33"/><circle class="cls-1" cx="22.44" cy="20.83" r=".38"/><circle class="cls-1" cx="23.39" cy="18.82" r=".38"/><circle class="cls-1" cx="20.71" cy="20.78" r=".38"/><circle class="cls-1" cx="30.82" cy="24.11" r=".48"/><circle class="cls-1" cx="29.24" cy="23.74" r=".48"/><circle class="cls-1" cx="28.37" cy="21.91" r=".48"/><circle class="cls-1" cx="29.99" cy="21.91" r=".48"/><circle class="cls-1" cx="27.6" cy="23.53" r=".48"/><circle class="cls-1" cx="24.27" cy="23.53" r=".48"/><circle class="cls-1" cx="26.81" cy="21.91" r=".48"/><circle class="cls-1" cx="28.83" cy="27.34" r=".48"/><circle class="cls-1" cx="27.53" cy="26.74" r=".48"/><circle class="cls-1" cx="24.18" cy="30.06" r=".48"/><circle class="cls-1" cx="23.01" cy="29.25" r=".48"/><circle class="cls-1" cx="22.83" cy="28.08" r=".48"/><circle class="cls-1" cx="23.58" cy="27.23" r=".48"/><circle class="cls-1" cx="22.01" cy="27" r=".48"/><circle class="cls-1" cx="19.7" cy="27.71" r=".46"/><circle class="cls-1" cx="21.19" cy="25.81" r=".46"/><circle class="cls-1" cx="20.4" cy="26.85" r=".46"/><circle class="cls-1" cx="21.86" cy="24.8" r=".46"/><circle class="cls-1" cx="22.68" cy="23.48" r=".46"/><circle class="cls-1" cx="25.09" cy="22.02" r=".41"/><circle class="cls-1" cx="23.42" cy="22.13" r=".41"/><circle class="cls-1" cx="21.65" cy="22.32" r=".41"/><circle class="cls-1" cx="20.95" cy="23.48" r=".41"/><circle class="cls-1" cx="20.26" cy="24.59" r=".41"/><circle class="cls-1" cx="19.49" cy="25.71" r=".41"/><circle class="cls-1" cx="18.75" cy="26.74" r=".41"/><circle class="cls-1" cx="18.11" cy="27.57" r=".41"/><circle class="cls-1" cx="16.38" cy="27.42" r=".41"/><circle class="cls-1" cx="13.99" cy="28" r=".41"/><circle class="cls-1" cx="12.3" cy="27.91" r=".41"/><circle class="cls-1" cx="10.57" cy="27.63" r=".41"/><circle class="cls-1" cx="14.77" cy="27.08" r=".41"/><circle class="cls-1" cx="15.44" cy="26.08" r=".41"/><circle class="cls-1" cx="16.18" cy="25.08" r=".41"/><circle class="cls-1" cx="16.79" cy="24.11" r=".41"/><circle class="cls-1" cx="18.11" cy="22.05" r=".41"/><circle class="cls-1" cx="17.44" cy="23.25" r=".41"/><circle class="cls-1" cx="16.45" cy="21.57" r=".34"/><circle class="cls-1" cx="15.61" cy="22.94" r=".34"/><circle class="cls-1" cx="15.11" cy="20.22" r=".34"/><circle class="cls-1" cx="17.95" cy="18.82" r=".34"/><circle class="cls-1" cx="19.19" cy="20.26" r=".34"/><circle class="cls-1" cx="12.53" cy="20.85" r=".34"/><circle class="cls-1" cx="10.09" cy="21.13" r=".34"/><circle class="cls-1" cx="11.52" cy="22.69" r=".34"/><circle class="cls-1" cx="10.91" cy="23.85" r=".34"/><circle class="cls-1" cx="10.29" cy="24.85" r=".34"/><circle class="cls-1" cx="9.65" cy="25.99" r=".34"/><circle class="cls-1" cx="7.99" cy="25.26" r=".34"/><circle class="cls-1" cx="8.54" cy="24.15" r=".34"/><circle class="cls-1" cx="9.27" cy="22.91" r=".34"/><circle class="cls-1" cx="8.93" cy="27.25" r=".34"/><circle class="cls-1" cx="7.31" cy="26.74" r=".34"/><circle class="cls-1" cx="5.7" cy="25.83" r=".34"/><circle class="cls-1" cx="3.96" cy="24.75" r=".34"/><circle class="cls-1" cx="7.72" cy="21.13" r=".34"/><circle class="cls-1" cx="6.89" cy="23.07" r=".34"/><circle class="cls-1" cx="6.3" cy="24.51" r=".34"/><circle class="cls-1" cx="4.53" cy="23.18" r=".34"/><circle class="cls-1" cx="5.32" cy="20.98" r=".34"/><circle class="cls-1" cx="2.91" cy="20.64" r=".34"/><circle class="cls-1" cx=".59" cy="20.3" r=".34"/><circle class="cls-1" cx="2.1" cy="23.21" r=".34"/><circle class="cls-1" cx="15.07" cy="23.89" r=".34"/><circle class="cls-1" cx="13.92" cy="22.24" r=".34"/><circle class="cls-1" cx="13.21" cy="23.37" r=".34"/><circle class="cls-1" cx="14.46" cy="24.75" r=".34"/><circle class="cls-1" cx="12.67" cy="24.41" r=".34"/><circle class="cls-1" cx="13.78" cy="25.74" r=".34"/><circle class="cls-1" cx="13.04" cy="26.89" r=".34"/><circle class="cls-1" cx="11.31" cy="26.45" r=".34"/><circle class="cls-1" cx="12.17" cy="25.38" r=".34"/><circle class="cls-1" cx="17.04" cy="26.52" r=".41"/><circle class="cls-1" cx="17.79" cy="25.49" r=".41"/><circle class="cls-1" cx="18.52" cy="24.41" r=".41"/><circle class="cls-1" cx="19.08" cy="23.37" r=".41"/><circle class="cls-1" cx="19.85" cy="22.24" r=".41"/><circle class="cls-1" cx="18.98" cy="28.43" r=".46"/><circle class="cls-1" cx="17.38" cy="28.28" r=".46"/><circle class="cls-1" cx="15.73" cy="28.2" r=".46"/></svg>