<?xml version="1.0" encoding="UTF-8"?><svg id="Layer_1" xmlns="http://www.w3.org/2000/svg" viewBox="0 0 200 200"><path d="m182.65,68.94c-6.69-17.76-19.2-33.14-35.28-43.34-2.31-1.32-5.1-1.36-7.45-.09-2.35,1.26-3.85,3.61-4.03,6.26-.17,2.66,1.01,5.18,3.25,6.78,13.17,8.41,23.44,21.1,28.93,35.73,5.49,14.63,6.1,30.94,1.72,45.94-4.38,15-13.68,28.42-26.18,37.79-12.5,9.37-27.99,14.53-43.61,14.53s-31.11-5.16-43.61-14.53c-12.5-9.37-21.8-22.79-26.18-37.79-4.38-15-3.77-31.31,1.72-45.94,5.49-14.63,15.76-27.31,29-35.77,2.16-1.56,3.35-4.08,3.18-6.74-.17-2.66-1.68-5-4.03-6.27-2.35-1.26-5.13-1.23-7.51.13-16.01,10.16-28.52,25.53-35.21,43.28-6.69,17.75-7.46,37.54-2.15,55.75s16.59,34.49,31.78,45.85c15.13,11.33,33.87,17.56,52.78,17.56h.16c.1,0,.19,0,.29,0,18.88,0,37.58-6.21,52.71-17.51,15.21-11.36,26.51-27.64,31.84-45.85,5.33-18.21,4.57-38.02-2.12-55.78Z"/><path d="m99.94,113.87c2.05,0,3.98-.8,5.43-2.25s2.25-3.38,2.25-5.43V19.6c0-2.74-1.47-5.29-3.84-6.65-2.37-1.37-5.32-1.37-7.68,0-2.37,1.37-3.84,3.92-3.84,6.66v86.58c0,2.05.8,3.98,2.25,5.43s3.38,2.25,5.43,2.25Z"/></svg>