<?xml version="1.0" encoding="UTF-8"?><svg id="Layer_1" xmlns="http://www.w3.org/2000/svg" viewBox="0 0 200 200"><path d="m98.62,107c-26.69,0-48.41-21.72-48.41-48.41S71.93,10.18,98.62,10.18s48.41,21.72,48.41,48.41-21.72,48.41-48.41,48.41Zm0-82.82c-18.97,0-34.41,15.44-34.41,34.41s15.44,34.41,34.41,34.41,34.41-15.44,34.41-34.41-15.44-34.41-34.41-34.41Z"/><path d="m175.55,197.82H21.69c-1.91,0-3.74-.78-5.06-2.16-1.32-1.38-2.02-3.24-1.94-5.15,1.97-45.02,38.84-80.29,83.93-80.29s81.96,35.27,83.93,80.29c.08,1.91-.62,3.77-1.94,5.15-1.32,1.38-3.15,2.16-5.06,2.16Zm-146.18-14h138.49c-5.03-33.95-34.14-59.59-69.24-59.59s-64.22,25.64-69.24,59.59Z"/></svg>