<?xml version="1.0" encoding="UTF-8"?><svg id="Layer_1" xmlns="http://www.w3.org/2000/svg" viewBox="0 0 200 200"><path d="m129.03,188.8c-.89,0-1.78-.08-2.67-.24-26.5-4.77-52.89-19.19-74.31-40.61-21.42-21.42-35.84-47.81-40.61-74.31-1.04-5.77,1.37-11.76,6.14-15.27,5.3-3.9,11-7.52,16.95-10.76,4.54-2.47,9.93-2.61,14.39-.35,13.59,6.85,22.59,18.24,26.75,33.85,1.27,4.75.14,9.9-3.02,13.77l-8.6,10.53c-.74.91-.85,2.19-.26,3.12,7.14,11.23,16.45,20.54,27.67,27.67.93.59,2.21.49,3.12-.26l10.52-8.6c3.87-3.16,9.02-4.29,13.78-3.02,15.6,4.16,26.99,13.17,33.84,26.76,2.25,4.46,2.12,9.84-.35,14.39-3.24,5.95-6.86,11.66-10.76,16.96-2.97,4.03-7.71,6.38-12.6,6.38h0ZM42.14,58.47c-.49,0-1,.13-1.48.39-5.45,2.96-10.66,6.27-15.49,9.83-.86.64-1.31,1.69-1.13,2.68,4.31,23.95,17.47,47.93,37.06,67.51,19.59,19.59,43.57,32.75,67.52,37.06.98.17,2.05-.27,2.68-1.13,3.56-4.83,6.87-10.04,9.83-15.49.46-.84.52-1.79.17-2.49-5.21-10.33-13.62-16.92-25.71-20.15t0,0c-.79-.21-1.67,0-2.36.56l-10.52,8.6c-5.21,4.26-12.49,4.72-18.1,1.15-12.82-8.15-23.46-18.79-31.61-31.61-3.57-5.61-3.11-12.89,1.15-18.1l8.6-10.52c.56-.69.77-1.57.56-2.36-3.23-12.09-9.82-20.5-20.14-25.71-.3-.15-.65-.23-1.02-.23h0Z"/><path d="m182.32,106.62c-.09,0-.18,0-.27,0-3.54-.15-6.28-3.13-6.13-6.67.85-20.35-6.89-40.26-21.24-54.62-14.35-14.35-34.28-22.11-54.61-21.24-3.51.11-6.52-2.6-6.67-6.13-.15-3.54,2.6-6.52,6.13-6.67,23.93-1.01,47.33,8.1,64.21,24.99,16.88,16.88,25.99,40.28,24.99,64.21-.14,3.44-2.98,6.14-6.4,6.14h0Z"/><path d="m160.4,106.62c-.13,0-.25,0-.38-.01-3.53-.21-6.23-3.24-6.02-6.77.86-14.54-4.54-28.76-14.81-39.03-10.27-10.27-24.5-15.67-39.03-14.81-3.55.2-6.57-2.49-6.77-6.02-.21-3.53,2.49-6.57,6.02-6.77,18.18-1.07,35.99,5.69,48.84,18.54,12.85,12.85,19.61,30.65,18.54,48.84-.2,3.4-3.03,6.03-6.39,6.03h0Z"/><path d="m138.51,106.62c-.2,0-.4,0-.6-.03-3.52-.33-6.11-3.45-5.78-6.98.81-8.68-2.26-17.18-8.41-23.33-6.15-6.15-14.64-9.2-23.33-8.41-3.52.36-6.64-2.26-6.98-5.78-.33-3.52,2.26-6.65,5.78-6.98,12.48-1.17,24.72,3.25,33.58,12.11,8.86,8.86,13.27,21.1,12.11,33.58-.31,3.32-3.1,5.81-6.37,5.81h0Z"/></svg>